<svg xmlns="http://www.w3.org/2000/svg" width="32" height="32">
    <path style="stroke:none;fill-rule:nonzero;fill:#000;fill-opacity:1" d="M14.598.824c.691-.097 2.472-.07 3.136.051 2.38.434 4.524 1.664 6.036 3.465a10.629 10.629 0 0 1 2.074 3.969c.015.05.605.066 2.715.066h2.695v8.547c0 8.215.004 8.973-.203 9.664-.028.09-.059.18-.094.285-.766 2.274-2.684 3.926-5.012 4.305-.734.117-19.172.117-19.914-.004-2.34-.379-4.355-2.164-5.043-4.457a10.712 10.712 0 0 1-.062-.219c-.18-.668-.18-1.387-.18-9.574V8.375h2.695c2.11 0 2.7-.016 2.715-.066.801-2.871 2.703-5.211 5.285-6.508.996-.48 2.059-.809 3.157-.977ZM5.812 14.72v-3.785H3.25l.016 7.32c.015 6.793.004 7.367.191 7.863.031.086.066.168.113.278.34.851 1.192 1.69 2.075 2.05.074.032.132.059.195.078.535.204 1.152.196 10.16.196 9.008 0 9.625.008 10.16-.196.063-.02.121-.046.195-.078.883-.36 1.73-1.195 2.079-2.05.296-.743.28-.266.3-8.168l.016-7.293h-2.563v3.785h-2.562v-3.785H8.375v3.785ZM16.614 3.305c-.597-.055-.668-.055-1.304.004-1.864.171-3.496.968-4.829 2.351-.671.695-1.324 1.719-1.605 2.512l-.07.203h14.39l-.07-.203c-.281-.793-.934-1.817-1.605-2.512-1.352-1.406-2.961-2.18-4.907-2.355Zm-6.5 19.234 1.59-2.367 1.04.695 1.062.707c.011.012-.082.164-.2.34-.168.246-.261.367-.23.426.031.07.223.058.645.058h.699v2.508H8.527Zm9.192-1.7.988-.66.473.696 1.59 2.363 1.113 1.668H17.28v-2.508h.7c.421 0 .613.012.644-.058.031-.059-.063-.18-.23-.43-.176-.254-.207-.336-.149-.367.04-.023.52-.34 1.059-.703Zm-4.766-4.94c.785-1.176 1.441-2.137 1.461-2.137.07 0 2.887 4.277 2.844 4.316-.024.024-.5.344-1.055.715l-1.012.668-.363-.543c-.195-.3-.383-.543-.414-.543-.031 0-.219.242-.414.543l-.363.543-1.012-.668a45.314 45.314 0 0 1-1.055-.715c-.027-.02.598-1.004 1.383-2.18Zm0 0"/>
</svg>
