<svg xmlns="http://www.w3.org/2000/svg" width="32" height="32">
    <path style="stroke:none;fill-rule:nonzero;fill:#000;fill-opacity:1" d="M9.332 24a2.663 2.663 0 0 0-2.652 2.668 2.662 2.662 0 0 0 2.652 2.664c1.469 0 2.668-1.2 2.668-2.664C12 25.199 10.8 24 9.332 24Zm-8-21.332v2.664H4l4.8 10.121L7 18.72A2.576 2.576 0 0 0 6.668 20c0 1.465 1.2 2.668 2.664 2.668h16V20H9.895a.333.333 0 0 1-.336-.332l.043-.16 1.199-2.176h9.933c1 0 1.88-.547 2.332-1.371l4.774-8.652a1.34 1.34 0 0 0-1.172-1.977H6.945L5.691 2.668ZM22.668 24a2.664 2.664 0 0 0-2.656 2.668 2.663 2.663 0 0 0 2.656 2.664c1.465 0 2.664-1.2 2.664-2.664 0-1.469-1.2-2.668-2.664-2.668Zm0 0"/>
</svg>
