<svg xmlns="http://www.w3.org/2000/svg" width="32" height="32">
    <path style="stroke:none;fill-rule:nonzero;fill:#000;fill-opacity:1" d="M32 13.121c-3.145.004-6.21-.851-8.77-2.453v11.168c0 4.238-3.007 8.027-7.543 9.512-4.535 1.484-9.644.351-12.824-2.844-3.18-3.195-3.758-7.781-1.453-11.508 2.305-3.726 7.008-5.808 11.805-5.226v5.617c-2.2-.606-4.594.093-5.934 1.734-1.34 1.64-1.328 3.848.035 5.473 1.364 1.629 3.77 2.3 5.957 1.676 2.192-.63 3.672-2.418 3.672-4.434V0h6.285c-.003.465.04.93.133 1.387.442 2.062 1.836 3.875 3.852 5.011A9.545 9.545 0 0 0 32 7.656Zm0 0"/>
</svg>
